<?xml version="1.0" encoding="utf-8"?><svg viewBox="0 0 490 490" xmlns="http://www.w3.org/2000/svg" xmlns:xlink="http://www.w3.org/1999/xlink"><style>:root>svg{display:none}:root>svg:target{display:block}</style><svg fill="none" viewBox="0 0 80 80" id="bench" xmlns="http://www.w3.org/2000/svg"><g clip-path="url(#aa)" fill="#D4C17F"><path d="M73.333 45.333c.738 0 1.334-.597 1.334-1.333v-5.333c0-.736-.596-1.334-1.334-1.334h-6.666V36A1.333 1.333 0 1 0 64 36v1.333H26.667V36A1.334 1.334 0 0 0 24 36v1.333h-6.667c-.735 0-1.333.598-1.333 1.334V44c0 .736.598 1.333 1.333 1.333h56Zm-54.666-2.666V40H72v2.667H18.667ZM48 29.333c-2.156 0-3.55 1.639-3.701 1.827a1.326 1.326 0 0 0 .188 1.861 1.34 1.34 0 0 0 1.874-.17c.006-.01.728-.85 1.639-.85.91 0 1.632.84 1.632.84a1.332 1.332 0 0 0 1.876.194 1.332 1.332 0 0 0 .193-1.875c-.152-.188-1.545-1.827-3.701-1.827Z"/><path d="M73.333 56c.738 0 1.334-.597 1.334-1.333v-5.334c0-.736-.596-1.333-1.334-1.333h-6.666v-1.333a1.333 1.333 0 1 0-2.667 0V48H26.667v-1.333a1.334 1.334 0 0 0-2.667 0V48h-6.667c-.735 0-1.333.597-1.333 1.333v5.334c0 .736.598 1.333 1.333 1.333h56Zm-54.666-2.667v-2.666H72v2.666H18.667ZM54.965 26.173a1.33 1.33 0 0 0 1.876.195 1.332 1.332 0 0 0 .194-1.875c-.152-.188-1.546-1.826-3.702-1.826-2.156 0-3.55 1.638-3.701 1.826a1.326 1.326 0 0 0 .188 1.862c.565.47 1.401.386 1.873-.17.007-.01.73-.852 1.64-.852.911 0 1.632.84 1.632.84ZM1.34 17.467c.068.681.641 1.2 1.327 1.2h8c.685 0 1.258-.519 1.326-1.2l1.334-13.334A1.333 1.333 0 0 0 12 2.667H8V1.333a1.334 1.334 0 0 0-2.666 0v1.334h-4A1.332 1.332 0 0 0 .007 4.133L1.34 17.467Zm9.187-12.134L9.46 16H3.873L2.807 5.333h7.72Z"/><path d="M37.333 30.667c0 1.49.61 2.877 1.716 3.902a1.33 1.33 0 0 0 1.884-.07c.5-.54.47-1.385-.07-1.886A2.628 2.628 0 0 1 40 30.667a2.67 2.67 0 0 1 1.75-2.491 1.336 1.336 0 0 0 .445-2.23A2.628 2.628 0 0 1 41.334 24c0-1.387 1.092-2.547 2.486-2.643a1.332 1.332 0 0 0 .892-2.23A2.654 2.654 0 0 1 44 17.333c0-1.386 1.092-2.546 2.485-2.642a1.332 1.332 0 0 0 .892-2.231 2.66 2.66 0 0 1-.71-1.793c0-1.192.812-2.244 1.973-2.559a1.332 1.332 0 0 0 .89-1.783 2.689 2.689 0 0 1-.197-.992A2.67 2.67 0 0 1 52 2.667a2.67 2.67 0 0 1 2.667 2.666c0 .332-.067.666-.196.992a1.332 1.332 0 0 0 .89 1.783 2.664 2.664 0 0 1 1.973 2.559 2.66 2.66 0 0 1-.711 1.793 1.334 1.334 0 0 0 .892 2.23c1.393.097 2.485 1.257 2.485 2.643a2.66 2.66 0 0 1-.71 1.794 1.334 1.334 0 0 0 .892 2.23c1.393.096 2.485 1.256 2.485 2.643 0 .74-.305 1.432-.863 1.947a1.335 1.335 0 0 0 .447 2.229 2.67 2.67 0 0 1 1.75 2.49 1.333 1.333 0 1 0 2.666 0 5.334 5.334 0 0 0-1.979-4.129A5.26 5.26 0 0 0 65.334 24c0-2.085-1.227-3.918-3.016-4.784a5.25 5.25 0 0 0 .35-1.883c0-2.085-1.228-3.917-3.017-4.784a5.25 5.25 0 0 0 .35-1.883 5.33 5.33 0 0 0-2.715-4.629A5.34 5.34 0 0 0 52 0a5.339 5.339 0 0 0-5.285 6.037A5.33 5.33 0 0 0 44 10.667c0 .648.12 1.285.35 1.882-1.79.867-3.017 2.699-3.017 4.784 0 .648.12 1.286.35 1.883-1.79.867-3.016 2.699-3.016 4.784 0 .903.224 1.768.645 2.538a5.333 5.333 0 0 0-1.979 4.129Z"/><path d="M50.159 18.561a1.338 1.338 0 0 0 1.741-.72 2.06 2.06 0 0 1 .1-.204c.038.067.072.136.097.199a1.335 1.335 0 0 0 2.472-1.004c-.148-.361-.96-2.165-2.569-2.165-1.608 0-2.421 1.804-2.57 2.165a1.33 1.33 0 0 0 .729 1.73ZM78.667 77.333H57.333a1.333 1.333 0 1 0 0 2.667h21.334a1.333 1.333 0 1 0 0-2.667ZM78.667 58.667h-12v-1.334a1.333 1.333 0 1 0-2.667 0v1.334H26.667v-1.334a1.334 1.334 0 0 0-2.667 0v1.334H12c-.736 0-1.333.597-1.333 1.333v5.333c0 .736.597 1.334 1.333 1.334h4v6.666a1.334 1.334 0 0 0 2.667 0v-6.666H72v6.666a1.333 1.333 0 1 0 2.667 0v-6.666h4c.737 0 1.333-.598 1.333-1.334V60c0-.736-.596-1.333-1.333-1.333ZM77.333 64h-64v-2.667h64V64Z"/><path d="M20 77.333H8V22.667a1.334 1.334 0 0 0-2.667 0v54.666h-4a1.334 1.334 0 0 0 0 2.667H20a1.334 1.334 0 0 0 0-2.667ZM52 77.333h-2.667a1.333 1.333 0 1 0 0 2.667H52a1.333 1.333 0 1 0 0-2.667ZM41.333 77.333H28A1.334 1.334 0 0 0 28 80h13.333a1.333 1.333 0 1 0 0-2.667Z"/></g><defs><clipPath id="aa"><path fill="#fff" d="M0 0h80v80H0z"/></clipPath></defs></svg><svg fill="none" viewBox="0 0 80 80" id="bicycle" xmlns="http://www.w3.org/2000/svg"><path d="M20 68.001H1.333a1.333 1.333 0 1 0 0 2.667H20A1.333 1.333 0 1 0 20 68ZM16 65.332c8.823 0 16-7.179 16-16 0-4.418-1.761-8.53-4.96-11.583a1.335 1.335 0 0 0-1.841 1.93 13.227 13.227 0 0 1 4.134 9.653c0 7.352-5.981 13.333-13.333 13.333S2.667 56.684 2.667 49.332c0-7.354 5.981-13.334 13.333-13.334a1.333 1.333 0 1 0 0-2.666c-8.822 0-16 7.177-16 16 0 8.821 7.177 16 16 16Z" fill="#D4C17F"/><path d="M22.667 27.998h.676L15.64 46.701a2.662 2.662 0 0 0-2.307 2.63A2.67 2.67 0 0 0 16 51.999a2.67 2.67 0 0 0 2.667-2.666c0-.611-.214-1.166-.56-1.616l7.524-18.27 8.438 12.252a1.33 1.33 0 0 0 1.854.343c.608-.419.76-1.248.341-1.855L27.87 27.998h2.798c2.205 0 4-1.794 4-4s-1.795-4-4-4h-8c-.738 0-1.333.596-1.333 1.334v5.333c0 .736.595 1.333 1.333 1.333ZM24 22.665h6.667a1.334 1.334 0 0 1 0 2.667H24v-2.667ZM62.667 34.665c0 .736.596 1.333 1.333 1.333 7.352 0 13.333 5.98 13.333 13.334 0 7.352-5.981 13.333-13.333 13.333s-13.333-5.982-13.333-13.333c0-3.996 1.77-7.747 4.857-10.294a1.334 1.334 0 0 0-1.699-2.057A15.962 15.962 0 0 0 48 49.331c0 8.822 7.177 16 16 16s16-7.178 16-16-7.177-16-16-16c-.737 0-1.333.597-1.333 1.334ZM41.333 68.001H28a1.333 1.333 0 1 0 0 2.667h13.333a1.333 1.333 0 1 0 0-2.667Z" fill="#D4C17F"/><path d="M41.333 42.854v-4.189a1.333 1.333 0 1 0 0-2.667h-2.666a1.333 1.333 0 1 0 0 2.667v4.19c-2.295.595-4 2.665-4 5.143 0 2.478 1.705 4.547 4 5.145v4.189a1.333 1.333 0 1 0 0 2.666h2.666a1.333 1.333 0 1 0 0-2.666v-4.19c2.295-.597 4-2.666 4-5.144s-1.705-4.548-4-5.144ZM40 50.665a2.67 2.67 0 0 1-2.667-2.667A2.67 2.67 0 0 1 40 45.332a2.67 2.67 0 0 1 2.667 2.666A2.67 2.67 0 0 1 40 50.665ZM61.945 47.652a2.646 2.646 0 0 0-.612 1.68A2.67 2.67 0 0 0 64 51.998a2.67 2.67 0 0 0 2.667-2.666c0-1.32-.967-2.41-2.226-2.623l-6.017-16.044h9.519c1.596 0 2.524-1.276 2.698-2.405l1.332-6.667a1.331 1.331 0 0 0-1.306-1.595h-12a1.332 1.332 0 1 0 0 2.667H69.04l-1.019 5.101c-.02.092-.077.222-.078.232H57.424L53.25 16.864c-.002-.006-.006-.008-.007-.014-.003-.005-.002-.01-.003-.014l-2.667-6.667a1.334 1.334 0 0 0-2.477.99l2.43 6.068-5.015 8.776a1.331 1.331 0 0 0 1.156 1.995 1.33 1.33 0 0 0 1.158-.672l3.925-6.868 3.208 8.556-10.161 11.43a1.332 1.332 0 1 0 1.992 1.773l9.228-10.38 5.93 15.815ZM78.667 68.001H57.333a1.333 1.333 0 1 0 0 2.667h21.334a1.333 1.333 0 1 0 0-2.667ZM52 68.001h-2.667a1.333 1.333 0 1 0 0 2.667H52A1.333 1.333 0 1 0 52 68Z" fill="#D4C17F"/></svg><svg fill="none" viewBox="0 0 80 80" id="building" xmlns="http://www.w3.org/2000/svg"><g clip-path="url(#ca)" fill="#D4C17F"><path d="M57.333 74.667H20c-.736 0-1.333.597-1.333 1.333v2.667a1.334 1.334 0 0 0 2.666 0v-1.334h36a1.334 1.334 0 0 0 0-2.666ZM29.333 33.333c0 .736.598 1.334 1.334 1.334H36c.736 0 1.333-.598 1.333-1.334v-8c0-.736-.597-1.333-1.333-1.333h-5.333c-.736 0-1.334.597-1.334 1.333v8ZM32 26.667h2.667V32H32v-5.333ZM17.333 16h-16C.597 16 0 16.597 0 17.333V44a1.334 1.334 0 0 0 2.667 0V18.667h14.666a1.334 1.334 0 0 0 0-2.667ZM64 65.333c0 .736.597 1.334 1.333 1.334h5.334c.736 0 1.333-.598 1.333-1.334v-8c0-.736-.597-1.333-1.333-1.333h-5.334c-.736 0-1.333.597-1.333 1.333v8Zm2.667-6.666h2.666V64h-2.666v-5.333ZM6.667 48C.076 48 0 65.16 0 65.333c0 3.22 2.295 5.912 5.333 6.532v6.802a1.334 1.334 0 0 0 2.667 0v-6.802c3.038-.62 5.333-3.312 5.333-6.532 0-.173-.076-17.333-6.666-17.333Zm0 21.333c-2.206 0-4-1.794-4-4 0-6.642 1.784-14.666 4-14.666s4 8.024 4 14.666c0 2.206-1.795 4-4 4ZM14.667 40H9.333C8.597 40 8 40.597 8 41.333V44a1.334 1.334 0 0 0 2.667 0v-1.333h2.666v6.666a1.334 1.334 0 0 0 2.667 0v-8c0-.736-.597-1.333-1.333-1.333ZM65.333 34.667h5.334c.736 0 1.333-.598 1.333-1.334v-8c0-.735-.597-1.333-1.333-1.333h-5.334c-.736 0-1.333.598-1.333 1.333v8c0 .736.597 1.334 1.333 1.334Zm1.334-8h2.666V32h-2.666v-5.333Z"/><path d="M14.667 24H9.333C8.597 24 8 24.597 8 25.333v8c0 .736.597 1.334 1.333 1.334h5.334c.736 0 1.333-.598 1.333-1.334v-8c0-.736-.597-1.333-1.333-1.333Zm-1.334 8h-2.666v-5.333h2.666V32ZM42.667 33.333c0 .736.597 1.334 1.333 1.334h5.333c.736 0 1.334-.598 1.334-1.334v-8c0-.736-.598-1.333-1.334-1.333H44c-.736 0-1.333.597-1.333 1.333v8Zm2.666-6.666H48V32h-2.667v-5.333ZM78.667 16h-16a1.334 1.334 0 0 0 0 2.667h14.666v53.578A3.946 3.946 0 0 0 76 72c-.23 0-.46.02-.685.06a5.295 5.295 0 0 0-4.648-2.727 5.295 5.295 0 0 0-4.648 2.727A4.005 4.005 0 0 0 61.334 76c0 2.205 1.794 4 4 4H76c2.205 0 4-1.795 4-4V17.333c0-.736-.597-1.333-1.333-1.333ZM76 77.333H65.333A1.335 1.335 0 0 1 64 76c0-.735.599-1.333 1.333-1.333.256 0 .499.073.723.217.365.235.821.277 1.224.115.403-.163.7-.512.797-.935A2.65 2.65 0 0 1 70.667 72a2.65 2.65 0 0 1 2.59 2.064c.096.423.394.772.796.935.402.162.859.12 1.225-.115.867-.56 2.055.125 2.055 1.116 0 .735-.598 1.333-1.333 1.333ZM44 18.667h5.333c.736 0 1.334-.598 1.334-1.334v-8c0-.735-.598-1.333-1.334-1.333H44c-.736 0-1.333.598-1.333 1.333v8c0 .736.597 1.334 1.333 1.334Zm1.333-8H48V16h-2.667v-5.333ZM42.667 49.333c0 .736.597 1.334 1.333 1.334h5.333c.736 0 1.334-.598 1.334-1.334v-8c0-.736-.598-1.333-1.334-1.333H44c-.736 0-1.333.597-1.333 1.333v8Zm2.666-6.666H48V48h-2.667v-5.333ZM30.667 18.667H36c.736 0 1.333-.598 1.333-1.334v-8C37.333 8.598 36.736 8 36 8h-5.333c-.736 0-1.334.598-1.334 1.333v8c0 .736.598 1.334 1.334 1.334Zm1.333-8h2.667V16H32v-5.333ZM39.053 64.387c-.24.253-.386.6-.386.946 0 .347.146.694.386.947.254.24.6.387.947.387s.693-.147.947-.387c.24-.253.386-.6.386-.947 0-.346-.146-.693-.386-.946-.507-.494-1.387-.494-1.894 0ZM29.333 49.333c0 .736.598 1.334 1.334 1.334H36c.736 0 1.333-.598 1.333-1.334v-8c0-.736-.597-1.333-1.333-1.333h-5.333c-.736 0-1.334.597-1.334 1.333v8ZM32 42.667h2.667V48H32v-5.333Z"/><path d="M26.667 57.333c0 .736.597 1.334 1.333 1.334h4v12a1.334 1.334 0 0 0 2.667 0v-12h10.666v12a1.334 1.334 0 0 0 2.667 0v-12h4A1.334 1.334 0 0 0 52 56H28c-.736 0-1.333.597-1.333 1.333ZM64 49.333c0 .736.597 1.334 1.333 1.334h5.334c.736 0 1.333-.598 1.333-1.334v-8c0-.736-.597-1.333-1.333-1.333h-5.334c-.736 0-1.333.597-1.333 1.333v8Zm2.667-6.666h2.666V48h-2.666v-5.333Z"/><path d="M57.333 0H22.667c-.736 0-1.334.597-1.334 1.333v69.334a1.334 1.334 0 0 0 2.667 0v-68h32v68a1.334 1.334 0 0 0 2.667 0V1.333C58.667.597 58.069 0 57.333 0Z"/></g><defs><clipPath id="ca"><path fill="#fff" d="M0 0h80v80H0z"/></clipPath></defs></svg><svg viewBox="0 0 490 490" fill="#fff" xml:space="preserve" id="cross" xmlns="http://www.w3.org/2000/svg"><path d="M11.387 490 245 255.832 478.613 490l10.826-10.826-233.63-234.178 233.63-234.185L478.613 0 245 234.161 11.387 0 .561 10.811l233.63 234.185L.561 479.174z"/></svg><svg fill="none" viewBox="0 0 22 20" id="facebook" xmlns="http://www.w3.org/2000/svg"><path d="M16.004.004 13.236 0C10.128 0 8.12 1.932 8.12 4.922v2.27H5.336c-.24 0-.435.182-.435.407v3.288c0 .226.195.408.435.408H8.12v8.297c0 .226.194.408.435.408h3.63c.24 0 .435-.183.435-.408v-8.297h3.253c.24 0 .435-.182.435-.408l.001-3.288a.396.396 0 0 0-.127-.288.45.45 0 0 0-.308-.12H12.62V5.268c0-.925.235-1.394 1.52-1.394l1.864-.001c.24 0 .435-.183.435-.408V.412c0-.225-.194-.407-.434-.408Z" fill="#fff"/></svg><svg fill="none" viewBox="0 0 80 80" id="fountain" xmlns="http://www.w3.org/2000/svg"><g clip-path="url(#fa)" fill="#D4C17F"><path d="M53.39 4.622c.182 0 .366-.037.543-.117.382-.171.768-.332 1.16-.48a1.332 1.332 0 0 0 .774-1.72 1.337 1.337 0 0 0-1.72-.775c-.44.168-.877.35-1.304.541a1.332 1.332 0 0 0 .546 2.55ZM53.333 33.538c.738 0 1.334-.596 1.334-1.333v-.231c0-.35.022-.695.066-1.033.096-.731-.418-1.4-1.146-1.496a1.324 1.324 0 0 0-1.498 1.148c-.058.45-.09.916-.09 1.381v.23c.001.738.597 1.334 1.334 1.334ZM46.667 33.867c.737 0 1.333-.597 1.333-1.333v-1.355a1.333 1.333 0 1 0-2.667 0v1.355c0 .736.596 1.333 1.334 1.333ZM54.323 12.778c-.43.236-.85.49-1.254.761a1.332 1.332 0 1 0 1.481 2.216c.344-.228.697-.442 1.06-.642.644-.355.88-1.167.525-1.811a1.335 1.335 0 0 0-1.812-.524ZM35.41 12.642a1.33 1.33 0 0 0 1.837.42 1.332 1.332 0 0 0 .421-1.837 23.51 23.51 0 0 0-.788-1.178 1.333 1.333 0 0 0-2.17 1.552c.245.34.478.688.7 1.043ZM59.788 2.822c.055 0 .112-.004.168-.01.412-.053.83-.093 1.25-.122A1.334 1.334 0 0 0 62.45 1.27 1.338 1.338 0 0 0 61.031.03c-.475.03-.944.077-1.408.136a1.333 1.333 0 0 0 .165 2.656ZM54.844 24.722a1.335 1.335 0 0 0 1.956 1.813c.277-.299.583-.581.908-.84a1.332 1.332 0 0 0 .215-1.873 1.332 1.332 0 0 0-1.874-.215c-.43.341-.836.718-1.205 1.115ZM42.752 13.062a1.33 1.33 0 0 0 1.837-.42c.223-.355.456-.703.7-1.043a1.333 1.333 0 0 0-2.17-1.552 22.59 22.59 0 0 0-.787 1.178 1.333 1.333 0 0 0 .42 1.837ZM53.333 39.974c.738 0 1.334-.597 1.334-1.333v-.667a1.333 1.333 0 1 0-2.667 0v.667c0 .736.596 1.333 1.333 1.333ZM46.639 27.091a1.337 1.337 0 0 0 1.503-1.141c.054-.411.127-.816.218-1.216a1.333 1.333 0 0 0-2.601-.59 17.32 17.32 0 0 0-.262 1.447 1.334 1.334 0 0 0 1.142 1.5ZM37.561 17.18c.134.394.254.793.364 1.198a1.335 1.335 0 0 0 1.636.936c.166-.044.31-.124.439-.219a1.317 1.317 0 0 0 .79.267c.584 0 1.123-.39 1.285-.984.11-.405.229-.804.363-1.199a1.333 1.333 0 0 0-.832-1.692c-.64-.218-1.314.095-1.606.687-.292-.592-.967-.905-1.607-.687a1.332 1.332 0 0 0-.832 1.692ZM47.785 8.208c.311 0 .623-.108.875-.326.316-.275.64-.542.97-.796a1.333 1.333 0 0 0-1.625-2.114c-.374.288-.74.587-1.094.898a1.333 1.333 0 0 0 .874 2.338ZM48.821 17.542c-.293.39-.57.792-.83 1.205a1.335 1.335 0 0 0 1.126 2.044c.443 0 .876-.22 1.13-.622.221-.351.456-.692.705-1.022a1.335 1.335 0 0 0-2.13-1.605ZM61.303 10.694a16.73 16.73 0 0 0-1.458.175 1.334 1.334 0 0 0 .432 2.631 14.47 14.47 0 0 1 1.231-.148 1.334 1.334 0 0 0 1.227-1.433 1.32 1.32 0 0 0-1.432-1.225ZM66.236 2.92c.415.067.828.146 1.236.235a1.333 1.333 0 1 0 .57-2.604c-.458-.101-.92-.188-1.387-.263a1.33 1.33 0 0 0-1.526 1.107 1.33 1.33 0 0 0 1.107 1.525ZM68.517 11.652c-.46-.164-.928-.31-1.401-.435a1.34 1.34 0 0 0-1.63.947 1.334 1.334 0 0 0 .947 1.631c.401.105.796.228 1.183.368a1.333 1.333 0 1 0 .901-2.51ZM62.124 21.32a1.333 1.333 0 0 0-1.265 1.398c.036.736.613 1.296 1.397 1.265a8.33 8.33 0 0 1 1.237.033 1.334 1.334 0 1 0 .273-2.653 10.736 10.736 0 0 0-1.642-.043ZM77.681 8.872a1.331 1.331 0 0 0 1.884.087c.544-.496.583-1.34.087-1.884-.16-.175-.323-.347-.487-.515a1.333 1.333 0 0 0-1.907 1.867c.145.145.286.295.423.445ZM57.333 50.64h-16a1.333 1.333 0 1 0 0 2.667h16c3.739 0 6.667-2.928 6.667-6.667v-2.666c0-.736-.596-1.334-1.333-1.334H17.333c-.737 0-1.333.598-1.333 1.334v2.666c0 3.739 2.928 6.667 6.667 6.667h12v6.667a1.333 1.333 0 1 0 2.666 0v-8c0-.736-.596-1.334-1.333-1.334H22.667c-2.244 0-4-1.757-4-4v-1.333h42.666v1.333c0 2.243-1.756 4-4 4ZM70.647 31.402c.013.188.02.38.02.572a1.333 1.333 0 1 0 2.666 0c0-.256-.01-.51-.028-.762a1.326 1.326 0 0 0-1.424-1.235 1.334 1.334 0 0 0-1.234 1.425ZM67.83 24.083a1.335 1.335 0 0 0 .12 1.883c.309.272.598.57.86.884a1.333 1.333 0 0 0 2.049-1.707 10.63 10.63 0 0 0-1.147-1.178 1.333 1.333 0 0 0-1.881.118ZM41.333 30.566a1.333 1.333 0 1 0-2.666 0v1.482a1.333 1.333 0 1 0 2.666 0v-1.482ZM40 36.64c-.737 0-1.333.598-1.333 1.334v.666a1.333 1.333 0 1 0 2.666 0v-.666c0-.736-.596-1.334-1.333-1.334ZM45.333 38.64a1.333 1.333 0 1 0 2.667 0v-.666a1.333 1.333 0 1 0-2.667 0v.666ZM41.333 23.974c0-.21.003-.419.01-.628a1.326 1.326 0 0 0-.83-1.263c-.051-.022-.109-.022-.162-.038-.1-.027-.195-.067-.303-.07l-.04-.001-.008.001-.008-.001-.04.001c-.108.003-.204.043-.303.07-.053.016-.112.016-.161.038a1.325 1.325 0 0 0-.83 1.263c.006.21.009.417.009.628v.667a1.333 1.333 0 1 0 2.666 0v-.667ZM32 38.64a1.333 1.333 0 1 0 2.667 0v-.666a1.333 1.333 0 1 0-2.667 0v.666ZM33.333 33.867c.738 0 1.334-.597 1.334-1.333v-1.355a1.333 1.333 0 1 0-2.667 0v1.355c0 .736.596 1.333 1.333 1.333ZM28 38.64v-.666a1.333 1.333 0 1 0-2.666 0v.666a1.333 1.333 0 1 0 2.666 0ZM9.312 27.022a1.333 1.333 0 0 0 1.879-.172c.261-.315.55-.612.86-.884.552-.488.605-1.33.118-1.883a1.33 1.33 0 0 0-1.881-.119c-.412.363-.799.76-1.148 1.18a1.336 1.336 0 0 0 .172 1.878Z"/><path d="M73.333 63.974h-28v-6.667a1.333 1.333 0 1 0-2.666 0v8c0 .736.596 1.333 1.333 1.333h28v6.667c0 2.205-1.795 4-4 4H12c-2.205 0-4-1.795-4-4V66.64h30.777a1.333 1.333 0 1 0 0-2.666H6.667c-.738 0-1.334.597-1.334 1.333v8A6.674 6.674 0 0 0 12 79.974h56a6.674 6.674 0 0 0 6.667-6.667v-8c0-.736-.596-1.333-1.334-1.333Z"/><path d="M32 70.64v2.667a1.333 1.333 0 1 0 2.667 0V70.64a1.333 1.333 0 1 0-2.667 0ZM1.393 25.975l-.048-.001c-.713 0-1.306.566-1.33 1.286-.01.238-.015.475-.015.714a1.333 1.333 0 1 0 2.667 0c0-.208.005-.414.012-.62a1.332 1.332 0 0 0-1.286-1.379ZM7.153 17.414c.299-.288.61-.563.93-.824a1.332 1.332 0 1 0-1.687-2.066c-.377.31-.744.634-1.093.973a1.333 1.333 0 1 0 1.85 1.917ZM3.628 19.603a1.334 1.334 0 0 0-1.79.595c-.218.434-.42.881-.602 1.336a1.334 1.334 0 0 0 2.476.99c.153-.385.324-.762.51-1.132a1.332 1.332 0 0 0-.594-1.789ZM6.03 5.563c.225 0 .454-.057.663-.177.362-.208.728-.404 1.103-.587.66-.325.932-1.125.608-1.785a1.335 1.335 0 0 0-1.785-.608c-.427.21-.846.432-1.256.668a1.334 1.334 0 0 0 .666 2.49ZM18.667 70.64v2.667a1.333 1.333 0 1 0 2.666 0V70.64a1.333 1.333 0 1 0-2.666 0ZM78.021 23.267a1.334 1.334 0 0 0 .743-1.733 16.986 16.986 0 0 0-.603-1.336 1.332 1.332 0 1 0-2.383 1.195c.186.369.357.746.51 1.132a1.333 1.333 0 0 0 1.733.742ZM79.985 27.26c-.024-.737-.677-1.328-1.378-1.285a1.332 1.332 0 0 0-1.286 1.379c.007.206.012.412.012.62a1.333 1.333 0 1 0 2.667 0c0-.239-.005-.476-.015-.714ZM74.636 3.074c-.41-.236-.828-.459-1.255-.668a1.338 1.338 0 0 0-1.785.608c-.324.66-.052 1.46.608 1.785.375.183.741.379 1.101.587a1.335 1.335 0 0 0 1.33-2.312ZM61.333 73.307V70.64a1.333 1.333 0 1 0-2.666 0v2.667a1.333 1.333 0 1 0 2.666 0ZM48 73.307V70.64a1.333 1.333 0 1 0-2.666 0v2.667a1.333 1.333 0 1 0 2.666 0ZM73.604 14.524a1.333 1.333 0 0 0-1.688 2.065c.321.262.632.537.93.825a1.332 1.332 0 1 0 1.85-1.917c-.348-.34-.715-.663-1.092-.973ZM8.119 29.977a1.321 1.321 0 0 0-1.426 1.235c-.017.253-.026.506-.026.762a1.333 1.333 0 1 0 2.666 0c0-.192.007-.384.02-.572a1.334 1.334 0 0 0-1.234-1.425ZM26.413 29.445a1.334 1.334 0 0 0-1.146 1.495c.044.339.066.683.066 1.034v.23c0 .738.596 1.334 1.334 1.334.737 0 1.333-.596 1.333-1.334v-.23c0-.466-.03-.93-.09-1.382a1.327 1.327 0 0 0-1.497-1.147ZM24.907 4.025c.392.147.778.309 1.16.48a1.333 1.333 0 0 0 1.09-2.433 24.46 24.46 0 0 0-1.305-.542 1.338 1.338 0 0 0-1.718.775 1.332 1.332 0 0 0 .773 1.72ZM24.39 15.113c.362.2.717.414 1.06.642a1.333 1.333 0 1 0 1.481-2.216c-.406-.27-.824-.525-1.254-.761a1.335 1.335 0 0 0-1.812.524 1.335 1.335 0 0 0 .526 1.81ZM1.333 9.307c.362 0 .723-.147.986-.435.137-.15.279-.3.422-.445A1.334 1.334 0 0 0 .835 6.561c-.164.168-.327.34-.487.514a1.334 1.334 0 0 0 .985 2.232ZM22.292 25.695c.325.259.63.541.908.84a1.334 1.334 0 1 0 1.956-1.813c-.37-.398-.775-.774-1.205-1.115a1.333 1.333 0 1 0-1.659 2.088ZM29.753 20.168a1.331 1.331 0 0 0 1.84.419c.622-.393.81-1.217.417-1.84a18.475 18.475 0 0 0-.831-1.205 1.336 1.336 0 0 0-1.868-.263 1.335 1.335 0 0 0-.263 1.868c.25.33.484.67.705 1.021ZM30.37 7.086c.33.254.654.521.97.796.252.22.564.326.875.326a1.333 1.333 0 0 0 .875-2.339c-.355-.31-.72-.609-1.095-.897a1.334 1.334 0 0 0-1.625 2.113ZM12.241 3.186c.095 0 .19-.01.286-.03.41-.09.822-.169 1.237-.236a1.331 1.331 0 0 0 1.107-1.525A1.327 1.327 0 0 0 13.345.288c-.468.075-.93.162-1.388.263a1.333 1.333 0 0 0 .284 2.635ZM18.793 2.69c.422.03.839.07 1.251.121a1.333 1.333 0 1 0 .333-2.645A23.175 23.175 0 0 0 18.971.03a1.34 1.34 0 0 0-1.42 1.241 1.334 1.334 0 0 0 1.242 1.419ZM32.645 23.14a1.333 1.333 0 0 0-1.006 1.594c.092.4.164.805.22 1.216a1.336 1.336 0 0 0 1.501 1.141 1.334 1.334 0 0 0 1.143-1.5c-.067-.488-.155-.97-.262-1.447a1.337 1.337 0 0 0-1.596-1.005ZM11.933 14.242c.15 0 .302-.026.451-.079.387-.14.781-.262 1.183-.368a1.335 1.335 0 0 0 .948-1.63 1.338 1.338 0 0 0-1.631-.948c-.473.125-.941.272-1.401.436a1.333 1.333 0 0 0 .45 2.589ZM18.492 13.352c.415.032.824.082 1.23.148a1.33 1.33 0 0 0 1.53-1.099 1.334 1.334 0 0 0-1.097-1.532 16.805 16.805 0 0 0-1.458-.175 1.332 1.332 0 1 0-.205 2.658ZM16.368 24.023c.045 0 .092-.001.139-.007a8.317 8.317 0 0 1 1.237-.033 1.315 1.315 0 0 0 1.397-1.265 1.333 1.333 0 0 0-1.265-1.398 10.7 10.7 0 0 0-1.643.043 1.334 1.334 0 0 0 .135 2.66Z"/></g><defs><clipPath id="fa"><path fill="#fff" d="M0 0h80v80H0z"/></clipPath></defs></svg><svg fill="none" viewBox="0 0 23 20" id="instagram" xmlns="http://www.w3.org/2000/svg"><g clip-path="url(#ga)" fill="#fff"><path d="M15.378 0H7.376C3.693 0 .707 2.799.707 6.25v7.5c0 3.451 2.986 6.25 6.668 6.25h8.003c3.682 0 6.668-2.799 6.668-6.25v-7.5c0-3.451-2.986-6.25-6.668-6.25Zm4.668 13.75c0 2.413-2.094 4.375-4.668 4.375H7.376c-2.575 0-4.668-1.962-4.668-4.375v-7.5c0-2.413 2.093-4.375 4.667-4.375h8.003c2.574 0 4.668 1.962 4.668 4.375v7.5Z"/><path d="M11.377 5C8.43 5 6.042 7.239 6.042 10s2.388 5 5.335 5c2.946 0 5.334-2.239 5.334-5s-2.388-5-5.334-5Zm0 8.125c-1.838 0-3.335-1.402-3.335-3.125 0-1.724 1.497-3.125 3.335-3.125 1.837 0 3.334 1.401 3.334 3.125 0 1.723-1.497 3.125-3.335 3.125ZM17.111 5.291c.393 0 .711-.298.711-.666 0-.368-.318-.666-.71-.666-.393 0-.711.298-.711.666 0 .368.318.666.71.666Z"/></g><defs><clipPath id="ga"><path fill="#fff" transform="translate(.707)" d="M0 0h21.339v20H0z"/></clipPath></defs></svg><svg xml:space="preserve" fill="#d0b146" viewBox="0 0 425.963 425.963" id="location-pin" xmlns="http://www.w3.org/2000/svg"><path d="M213.285 0h-.608C139.114 0 79.268 59.826 79.268 133.361c0 48.202 21.952 111.817 65.246 189.081 32.098 57.281 64.646 101.152 64.972 101.588a4.8 4.8 0 0 0 3.847 1.934c.043 0 .087 0 .13-.002a4.805 4.805 0 0 0 3.868-2.143c.321-.486 32.637-49.287 64.517-108.976 43.03-80.563 64.848-141.624 64.848-181.482C346.693 59.825 286.846 0 213.285 0zm61.58 136.62c0 34.124-27.761 61.884-61.885 61.884-34.123 0-61.884-27.761-61.884-61.884s27.761-61.884 61.884-61.884c34.124 0 61.885 27.761 61.885 61.884z"/></svg><svg fill="none" viewBox="0 0 134 66" id="logo" xmlns="http://www.w3.org/2000/svg"><path d="M1.441 37V12.39H4.5v21.587h10.16V37H1.441Zm15.188-5.203v-8.684c0-1.101.492-2.18 1.476-3.234 1.22-1.266 2.743-1.899 4.57-1.899v2.848c-1.382 0-2.343.574-2.882 1.723a2.475 2.475 0 0 0-.246 1.055v7.734c0 .867.398 1.605 1.195 2.215a3.137 3.137 0 0 0 1.934.633v2.847c-2.227 0-3.95-.902-5.168-2.707-.586-.89-.88-1.734-.88-2.531Zm7.558 5.238v-2.847c1.243 0 2.133-.563 2.672-1.688.188-.375.282-.738.282-1.09v-7.805c0-.96-.41-1.722-1.23-2.285a3.204 3.204 0 0 0-1.759-.492V17.98c2.157 0 3.82.88 4.992 2.637.587.867.88 1.7.88 2.496v8.684c0 1.148-.493 2.262-1.477 3.34-1.149 1.242-2.602 1.875-4.36 1.898Zm7.981-14.625v-2.883h2.32v-2.039c0-1.312.434-2.508 1.301-3.586.961-1.125 2.203-1.699 3.727-1.722h1.3l-.668 2.847h-.668c-1.335.07-2.015.891-2.039 2.461v2.075l2.391-.036v2.883h-2.39V37h-2.954V22.41h-2.32Zm9.633-1.37V18.19h2.32V12.11h2.988v6.082h2.25v2.883h-2.25v10.09c0 1.664.68 2.59 2.04 2.777.257.047.515.07.773.07h.492L51.082 37h-1.266c-2.882-.023-4.652-1.102-5.308-3.234-.235-.797-.352-1.782-.352-2.953l-.035-9.774h-2.32ZM52.664 37V12.39h3.059v10.723h3.164v2.989h-3.164V37h-3.059Zm7.98-10.898v-2.989h3.13V12.391h3.093V37h-3.094V26.102h-3.129Zm8.965 5.695v-8.684c0-1.101.493-2.18 1.477-3.234 1.219-1.266 2.742-1.899 4.57-1.899v2.848c-1.383 0-2.344.574-2.883 1.723a2.476 2.476 0 0 0-.246 1.055v7.734c0 .867.399 1.605 1.196 2.215a3.137 3.137 0 0 0 1.933.633v2.847c-2.226 0-3.949-.902-5.168-2.707-.586-.89-.879-1.734-.879-2.531Zm7.559 5.238v-2.847c1.242 0 2.133-.563 2.672-1.688.187-.375.281-.738.281-1.09v-7.805c0-.96-.41-1.722-1.23-2.285a3.204 3.204 0 0 0-1.758-.492V17.98c2.156 0 3.82.88 4.992 2.637.586.867.879 1.7.879 2.496v8.684c0 1.148-.492 2.262-1.477 3.34-1.148 1.242-2.601 1.875-4.359 1.898Zm8.508-5.097V18.015h2.988v13.57c0 .844.422 1.547 1.266 2.11a3.446 3.446 0 0 0 1.863.527v2.953c-2.25 0-3.984-.88-5.203-2.637-.61-.89-.914-1.758-.914-2.602Zm7.664 5.238v-2.953c1.266 0 2.191-.504 2.777-1.512.211-.375.317-.75.317-1.125v-13.57h2.988v13.922c0 1.101-.504 2.19-1.512 3.269-1.219 1.29-2.742 1.945-4.57 1.969Zm8.121-5.168 2.777-.528c0 1.055.551 1.887 1.653 2.497.539.257 1.054.398 1.547.421v2.778c-2.274 0-3.973-.82-5.098-2.461-.586-.867-.879-1.77-.879-2.707Zm.176-8.649c0-2.132.972-3.715 2.918-4.746.937-.492 1.875-.738 2.812-.738v2.742c-1.078 0-1.91.445-2.496 1.336-.305.445-.457.914-.457 1.406 0 .75.586 1.36 1.758 1.828.89.375 2.613.868 5.168 1.477 1.594.328 2.73 1.113 3.41 2.355.352.657.527 1.395.527 2.215 0 2.25-.902 3.914-2.707 4.993-1.054.632-2.261.949-3.621.949v-2.778c1.078 0 1.981-.375 2.707-1.125.516-.539.774-1.171.774-1.898 0-.938-.926-1.688-2.778-2.25-.468-.14-1.218-.34-2.25-.598-1.101-.258-1.898-.468-2.39-.633-1.782-.703-2.86-1.769-3.235-3.199a6.192 6.192 0 0 1-.14-1.336Zm7.277-2.707v-2.777c2.016 0 3.645.75 4.887 2.25.773.96 1.16 1.969 1.16 3.023l-2.777.457c0-1.289-.704-2.19-2.11-2.707-.422-.164-.808-.246-1.16-.246Zm8.438 11.145v-8.719c.023-1.078.539-2.144 1.546-3.2 1.219-1.241 2.696-1.874 4.43-1.898v2.778c-1.125 0-2.004.492-2.637 1.476-.257.422-.386.809-.386 1.16v2.391h7.875v-2.39c0-1.055-.539-1.829-1.618-2.32a3.478 3.478 0 0 0-1.511-.352V17.98c1.617 0 3.058.574 4.324 1.722 1.055 1.008 1.594 2.121 1.617 3.34v5.59h-10.687v3.164c0 .656.375 1.265 1.125 1.828.609.422 1.254.633 1.933.633V37c-2.133 0-3.808-.867-5.027-2.602-.656-.914-.984-1.78-.984-2.601ZM125.051 37v-2.777c1.406 0 2.461-.61 3.164-1.828a3.9 3.9 0 0 0 .316-.739l2.496.914c-.422 1.617-1.382 2.836-2.882 3.657a6.447 6.447 0 0 1-3.094.773ZM2.892 58.584.348 54.48h.96l2.304 3.78h1.596v-3.78h.924v3.78h1.596l2.292-3.78h.972l-2.556 4.104L11.304 63h-.972l-2.484-3.996H6.132V63h-.924v-3.996H3.492L1.008 63H.036l2.856-4.416Zm11.812 3.156 5.28-7.26h.696V63h-.84v-7.14L14.644 63h-.768v-8.52h.828v7.26Zm11.508-5.004a28.924 28.924 0 0 1-.372 2.892c-.144.8-.328 1.456-.552 1.968-.216.504-.48.876-.792 1.116a1.729 1.729 0 0 1-1.08.348l-.144-.804c.16-.008.312-.04.456-.096.152-.056.296-.156.432-.3.136-.152.264-.356.384-.612.12-.264.232-.6.336-1.008.104-.416.196-.916.276-1.5a30.48 30.48 0 0 0 .228-2.076l.18-2.184h4.332V63h-.828v-7.776h-2.736l-.12 1.512Zm10.745 6.324c-.592 0-1.136-.12-1.632-.36a4.188 4.188 0 0 1-1.26-.972 4.494 4.494 0 0 1-.816-1.392 4.574 4.574 0 0 1 .012-3.228c.208-.52.492-.98.852-1.38.36-.4.784-.716 1.272-.948a3.54 3.54 0 0 1 1.584-.36c.592 0 1.132.128 1.62.384a3.92 3.92 0 0 1 1.26.984c.352.408.624.872.816 1.392a4.443 4.443 0 0 1-.024 3.204c-.2.52-.48.98-.84 1.38a4.116 4.116 0 0 1-1.26.948 3.642 3.642 0 0 1-1.584.348Zm-3.156-4.32c0 .464.076.912.228 1.344.152.424.368.804.648 1.14.28.328.612.592.996.792a2.83 2.83 0 0 0 1.284.288c.48 0 .916-.104 1.308-.312a3.19 3.19 0 0 0 .996-.816c.272-.336.48-.716.624-1.14a3.814 3.814 0 0 0-.012-2.628 3.553 3.553 0 0 0-.648-1.14 3.148 3.148 0 0 0-.996-.78c-.384-.2-.808-.3-1.272-.3-.48 0-.916.104-1.308.312-.392.2-.724.468-.996.804a3.874 3.874 0 0 0-.636 1.14 4.005 4.005 0 0 0-.216 1.296Zm15.456-6.732a1.16 1.16 0 0 1-.492.924c-.304.224-.728.336-1.272.336s-.972-.112-1.284-.336a1.17 1.17 0 0 1-.48-.924h.516c0 .104.032.204.096.3s.152.18.264.252c.112.072.244.132.396.18.152.04.32.06.504.06.344 0 .628-.072.852-.216.232-.152.364-.344.396-.576h.504Zm-4.44 9.732 5.28-7.26h.696V63h-.84v-7.14L44.757 63h-.768v-8.52h.828v7.26Zm14.915-3.48h1.296l2.784-3.78h.96l-2.988 4.104 3.3 4.416h-.96L61.1 59.004h-1.368V63h-.828v-8.52h.828v3.78Zm10.922 4.8c-.591 0-1.135-.12-1.632-.36a4.188 4.188 0 0 1-1.26-.972 4.494 4.494 0 0 1-.816-1.392 4.574 4.574 0 0 1 .013-3.228c.207-.52.492-.98.852-1.38.36-.4.783-.716 1.271-.948a3.54 3.54 0 0 1 1.585-.36c.591 0 1.132.128 1.62.384a3.92 3.92 0 0 1 1.26.984c.352.408.624.872.816 1.392a4.443 4.443 0 0 1-.025 3.204c-.2.52-.48.98-.84 1.38a4.116 4.116 0 0 1-1.26.948 3.642 3.642 0 0 1-1.584.348ZM67.5 58.74c0 .464.076.912.228 1.344.151.424.367.804.647 1.14.28.328.613.592.997.792a2.83 2.83 0 0 0 1.284.288c.48 0 .915-.104 1.308-.312a3.19 3.19 0 0 0 .996-.816c.272-.336.48-.716.623-1.14a3.814 3.814 0 0 0-.011-2.628 3.553 3.553 0 0 0-.648-1.14 3.148 3.148 0 0 0-.996-.78c-.385-.2-.809-.3-1.273-.3-.48 0-.915.104-1.307.312-.392.2-.724.468-.996.804a3.874 3.874 0 0 0-.636 1.14 4.005 4.005 0 0 0-.216 1.296ZM85.222 63v-6.996l-3.108 5.412h-.492l-3.108-5.412V63h-.84v-8.52h.864l3.324 5.832 3.348-5.832h.852V63h-.84Zm4.463-8.52h6.576V63h-.84v-7.776h-4.908V63h-.828v-8.52Zm12.102 2.256a28.924 28.924 0 0 1-.372 2.892c-.144.8-.328 1.456-.552 1.968-.216.504-.48.876-.792 1.116a1.729 1.729 0 0 1-1.08.348l-.144-.804c.16-.008.312-.04.456-.096.152-.056.296-.156.432-.3.136-.152.264-.356.384-.612.12-.264.232-.6.336-1.008.104-.416.196-.916.276-1.5a30.48 30.48 0 0 0 .228-2.076l.18-2.184h4.332V63h-.828v-7.776h-2.736l-.12 1.512Zm13.037 5.52V63H109.1v-8.52h5.616v.744h-4.776v3.072h4.164v.708h-4.164v3.252h4.884Zm3.868-3.996h1.296l2.784-3.78h.96l-2.988 4.104 3.3 4.416h-.96l-3.024-3.996h-1.368V63h-.828v-8.52h.828v3.78Zm6.915.42c0-.512.088-1.02.264-1.524.184-.512.448-.968.792-1.368a3.96 3.96 0 0 1 1.272-.972c.504-.256 1.076-.384 1.716-.384.76 0 1.408.172 1.944.516.544.344.944.792 1.2 1.344l-.66.408a2.457 2.457 0 0 0-.504-.708 2.654 2.654 0 0 0-.624-.468 2.51 2.51 0 0 0-.696-.252 3.109 3.109 0 0 0-.708-.084c-.512 0-.964.104-1.356.312a3.19 3.19 0 0 0-.996.816 3.615 3.615 0 0 0-.6 1.14c-.136.416-.204.84-.204 1.272 0 .472.08.924.24 1.356.168.432.392.816.672 1.152.288.328.624.592 1.008.792.392.192.816.288 1.272.288.24 0 .484-.028.732-.084a3.03 3.03 0 0 0 1.392-.78c.2-.2.368-.44.504-.72l.696.36c-.136.32-.328.604-.576.852-.248.24-.524.444-.828.612a4.103 4.103 0 0 1-.972.384 3.92 3.92 0 0 1-.996.132c-.584 0-1.12-.128-1.608-.384a4.262 4.262 0 0 1-1.26-.996 4.854 4.854 0 0 1-.828-1.404 4.673 4.673 0 0 1-.288-1.608Z" fill="#fff"/></svg><svg fill="none" viewBox="0 0 134 66" id="logo_footer" xmlns="http://www.w3.org/2000/svg"><path d="M1.441 37V12.39H4.5v21.587h10.16V37H1.441Zm15.188-5.203v-8.684c0-1.101.492-2.18 1.476-3.234 1.22-1.266 2.743-1.899 4.57-1.899v2.848c-1.382 0-2.343.574-2.882 1.723a2.475 2.475 0 0 0-.246 1.055v7.734c0 .867.398 1.605 1.195 2.215a3.137 3.137 0 0 0 1.934.633v2.847c-2.227 0-3.95-.902-5.168-2.707-.586-.89-.88-1.734-.88-2.531Zm7.558 5.238v-2.847c1.243 0 2.133-.563 2.672-1.688.188-.375.282-.738.282-1.09v-7.805c0-.96-.41-1.722-1.23-2.285a3.204 3.204 0 0 0-1.759-.492V17.98c2.157 0 3.82.88 4.992 2.637.587.867.88 1.7.88 2.496v8.684c0 1.148-.493 2.262-1.477 3.34-1.149 1.242-2.602 1.875-4.36 1.898Zm7.981-14.625v-2.883h2.32v-2.039c0-1.312.434-2.508 1.301-3.586.961-1.125 2.203-1.699 3.727-1.722h1.3l-.668 2.847h-.668c-1.335.07-2.015.891-2.039 2.461v2.075l2.391-.036v2.883h-2.39V37h-2.954V22.41h-2.32Zm9.633-1.37V18.19h2.32V12.11h2.988v6.082h2.25v2.883h-2.25v10.09c0 1.664.68 2.59 2.04 2.777.257.047.515.07.773.07h.492L51.082 37h-1.266c-2.882-.023-4.652-1.102-5.308-3.234-.235-.797-.352-1.782-.352-2.953l-.035-9.774h-2.32ZM52.664 37V12.39h3.059v10.723h3.164v2.989h-3.164V37h-3.059Zm7.98-10.898v-2.989h3.13V12.391h3.093V37h-3.094V26.102h-3.129Zm8.965 5.695v-8.684c0-1.101.493-2.18 1.477-3.234 1.219-1.266 2.742-1.899 4.57-1.899v2.848c-1.383 0-2.344.574-2.883 1.723a2.476 2.476 0 0 0-.246 1.055v7.734c0 .867.399 1.605 1.196 2.215a3.137 3.137 0 0 0 1.933.633v2.847c-2.226 0-3.949-.902-5.168-2.707-.586-.89-.879-1.734-.879-2.531Zm7.559 5.238v-2.847c1.242 0 2.133-.563 2.672-1.688.187-.375.281-.738.281-1.09v-7.805c0-.96-.41-1.722-1.23-2.285a3.204 3.204 0 0 0-1.758-.492V17.98c2.156 0 3.82.88 4.992 2.637.586.867.879 1.7.879 2.496v8.684c0 1.148-.492 2.262-1.477 3.34-1.148 1.242-2.601 1.875-4.359 1.898Zm8.508-5.097V18.015h2.988v13.57c0 .844.422 1.547 1.266 2.11a3.446 3.446 0 0 0 1.863.527v2.953c-2.25 0-3.984-.88-5.203-2.637-.61-.89-.914-1.758-.914-2.602Zm7.664 5.238v-2.953c1.266 0 2.191-.504 2.777-1.512.211-.375.317-.75.317-1.125v-13.57h2.988v13.922c0 1.101-.504 2.19-1.512 3.269-1.219 1.29-2.742 1.945-4.57 1.969Zm8.121-5.168 2.777-.528c0 1.055.551 1.887 1.653 2.497.539.257 1.054.398 1.547.421v2.778c-2.274 0-3.973-.82-5.098-2.461-.586-.867-.879-1.77-.879-2.707Zm.176-8.649c0-2.132.972-3.715 2.918-4.746.937-.492 1.875-.738 2.812-.738v2.742c-1.078 0-1.91.445-2.496 1.336-.305.445-.457.914-.457 1.406 0 .75.586 1.36 1.758 1.828.89.375 2.613.868 5.168 1.477 1.594.328 2.73 1.113 3.41 2.355.352.657.527 1.395.527 2.215 0 2.25-.902 3.914-2.707 4.993-1.054.632-2.261.949-3.621.949v-2.778c1.078 0 1.981-.375 2.707-1.125.516-.539.774-1.171.774-1.898 0-.938-.926-1.688-2.778-2.25-.468-.14-1.218-.34-2.25-.598-1.101-.258-1.898-.468-2.39-.633-1.782-.703-2.86-1.769-3.235-3.199a6.192 6.192 0 0 1-.14-1.336Zm7.277-2.707v-2.777c2.016 0 3.645.75 4.887 2.25.773.96 1.16 1.969 1.16 3.023l-2.777.457c0-1.289-.704-2.19-2.11-2.707-.422-.164-.808-.246-1.16-.246Zm8.438 11.145v-8.719c.023-1.078.539-2.144 1.546-3.2 1.219-1.241 2.696-1.874 4.43-1.898v2.778c-1.125 0-2.004.492-2.637 1.476-.257.422-.386.809-.386 1.16v2.391h7.875v-2.39c0-1.055-.539-1.829-1.618-2.32a3.478 3.478 0 0 0-1.511-.352V17.98c1.617 0 3.058.574 4.324 1.722 1.055 1.008 1.594 2.121 1.617 3.34v5.59h-10.687v3.164c0 .656.375 1.265 1.125 1.828.609.422 1.254.633 1.933.633V37c-2.133 0-3.808-.867-5.027-2.602-.656-.914-.984-1.78-.984-2.601ZM125.051 37v-2.777c1.406 0 2.461-.61 3.164-1.828a3.9 3.9 0 0 0 .316-.739l2.496.914c-.422 1.617-1.382 2.836-2.882 3.657a6.447 6.447 0 0 1-3.094.773ZM2.892 58.584.348 54.48h.96l2.304 3.78h1.596v-3.78h.924v3.78h1.596l2.292-3.78h.972l-2.556 4.104L11.304 63h-.972l-2.484-3.996H6.132V63h-.924v-3.996H3.492L1.008 63H.036l2.856-4.416Zm11.812 3.156 5.28-7.26h.696V63h-.84v-7.14L14.644 63h-.768v-8.52h.828v7.26Zm11.508-5.004a28.924 28.924 0 0 1-.372 2.892c-.144.8-.328 1.456-.552 1.968-.216.504-.48.876-.792 1.116a1.729 1.729 0 0 1-1.08.348l-.144-.804c.16-.008.312-.04.456-.096.152-.056.296-.156.432-.3.136-.152.264-.356.384-.612.12-.264.232-.6.336-1.008.104-.416.196-.916.276-1.5a30.48 30.48 0 0 0 .228-2.076l.18-2.184h4.332V63h-.828v-7.776h-2.736l-.12 1.512Zm10.745 6.324c-.592 0-1.136-.12-1.632-.36a4.188 4.188 0 0 1-1.26-.972 4.494 4.494 0 0 1-.816-1.392 4.574 4.574 0 0 1 .012-3.228c.208-.52.492-.98.852-1.38.36-.4.784-.716 1.272-.948a3.54 3.54 0 0 1 1.584-.36c.592 0 1.132.128 1.62.384a3.92 3.92 0 0 1 1.26.984c.352.408.624.872.816 1.392a4.443 4.443 0 0 1-.024 3.204c-.2.52-.48.98-.84 1.38a4.116 4.116 0 0 1-1.26.948 3.642 3.642 0 0 1-1.584.348Zm-3.156-4.32c0 .464.076.912.228 1.344.152.424.368.804.648 1.14.28.328.612.592.996.792a2.83 2.83 0 0 0 1.284.288c.48 0 .916-.104 1.308-.312a3.19 3.19 0 0 0 .996-.816c.272-.336.48-.716.624-1.14a3.814 3.814 0 0 0-.012-2.628 3.553 3.553 0 0 0-.648-1.14 3.148 3.148 0 0 0-.996-.78c-.384-.2-.808-.3-1.272-.3-.48 0-.916.104-1.308.312-.392.2-.724.468-.996.804a3.874 3.874 0 0 0-.636 1.14 4.005 4.005 0 0 0-.216 1.296Zm15.456-6.732a1.16 1.16 0 0 1-.492.924c-.304.224-.728.336-1.272.336s-.972-.112-1.284-.336a1.17 1.17 0 0 1-.48-.924h.516c0 .104.032.204.096.3s.152.18.264.252c.112.072.244.132.396.18.152.04.32.06.504.06.344 0 .628-.072.852-.216.232-.152.364-.344.396-.576h.504Zm-4.44 9.732 5.28-7.26h.696V63h-.84v-7.14L44.757 63h-.768v-8.52h.828v7.26Zm14.915-3.48h1.296l2.784-3.78h.96l-2.988 4.104 3.3 4.416h-.96L61.1 59.004h-1.368V63h-.828v-8.52h.828v3.78Zm10.922 4.8c-.591 0-1.135-.12-1.632-.36a4.188 4.188 0 0 1-1.26-.972 4.494 4.494 0 0 1-.816-1.392 4.574 4.574 0 0 1 .013-3.228c.207-.52.492-.98.852-1.38.36-.4.783-.716 1.271-.948a3.54 3.54 0 0 1 1.585-.36c.591 0 1.132.128 1.62.384a3.92 3.92 0 0 1 1.26.984c.352.408.624.872.816 1.392a4.443 4.443 0 0 1-.025 3.204c-.2.52-.48.98-.84 1.38a4.116 4.116 0 0 1-1.26.948 3.642 3.642 0 0 1-1.584.348ZM67.5 58.74c0 .464.076.912.228 1.344.151.424.367.804.647 1.14.28.328.613.592.997.792a2.83 2.83 0 0 0 1.284.288c.48 0 .915-.104 1.308-.312a3.19 3.19 0 0 0 .996-.816c.272-.336.48-.716.623-1.14a3.814 3.814 0 0 0-.011-2.628 3.553 3.553 0 0 0-.648-1.14 3.148 3.148 0 0 0-.996-.78c-.385-.2-.809-.3-1.273-.3-.48 0-.915.104-1.307.312-.392.2-.724.468-.996.804a3.874 3.874 0 0 0-.636 1.14 4.005 4.005 0 0 0-.216 1.296ZM85.222 63v-6.996l-3.108 5.412h-.492l-3.108-5.412V63h-.84v-8.52h.864l3.324 5.832 3.348-5.832h.852V63h-.84Zm4.463-8.52h6.576V63h-.84v-7.776h-4.908V63h-.828v-8.52Zm12.102 2.256a28.924 28.924 0 0 1-.372 2.892c-.144.8-.328 1.456-.552 1.968-.216.504-.48.876-.792 1.116a1.729 1.729 0 0 1-1.08.348l-.144-.804c.16-.008.312-.04.456-.096.152-.056.296-.156.432-.3.136-.152.264-.356.384-.612.12-.264.232-.6.336-1.008.104-.416.196-.916.276-1.5a30.48 30.48 0 0 0 .228-2.076l.18-2.184h4.332V63h-.828v-7.776h-2.736l-.12 1.512Zm13.037 5.52V63H109.1v-8.52h5.616v.744h-4.776v3.072h4.164v.708h-4.164v3.252h4.884Zm3.868-3.996h1.296l2.784-3.78h.96l-2.988 4.104 3.3 4.416h-.96l-3.024-3.996h-1.368V63h-.828v-8.52h.828v3.78Zm6.915.42c0-.512.088-1.02.264-1.524.184-.512.448-.968.792-1.368a3.96 3.96 0 0 1 1.272-.972c.504-.256 1.076-.384 1.716-.384.76 0 1.408.172 1.944.516.544.344.944.792 1.2 1.344l-.66.408a2.457 2.457 0 0 0-.504-.708 2.654 2.654 0 0 0-.624-.468 2.51 2.51 0 0 0-.696-.252 3.109 3.109 0 0 0-.708-.084c-.512 0-.964.104-1.356.312a3.19 3.19 0 0 0-.996.816 3.615 3.615 0 0 0-.6 1.14c-.136.416-.204.84-.204 1.272 0 .472.08.924.24 1.356.168.432.392.816.672 1.152.288.328.624.592 1.008.792.392.192.816.288 1.272.288.24 0 .484-.028.732-.084a3.03 3.03 0 0 0 1.392-.78c.2-.2.368-.44.504-.72l.696.36c-.136.32-.328.604-.576.852-.248.24-.524.444-.828.612a4.103 4.103 0 0 1-.972.384 3.92 3.92 0 0 1-.996.132c-.584 0-1.12-.128-1.608-.384a4.262 4.262 0 0 1-1.26-.996 4.854 4.854 0 0 1-.828-1.404 4.673 4.673 0 0 1-.288-1.608Z" fill="#fff"/></svg><svg fill="none" viewBox="0 0 40 40" id="mouse" xmlns="http://www.w3.org/2000/svg"><g clip-path="url(#ka)" fill="#D4C17F"><path d="M19.969 0C13.48 0 8.203 5.278 8.203 11.766v16.468C8.203 34.722 13.481 40 19.97 40s11.766-5.278 11.766-11.766V11.766C31.735 5.278 26.457 0 19.969 0Zm9.366 28.234c0 5.164-4.202 9.366-9.366 9.366s-9.366-4.202-9.366-9.366V11.766c0-5.164 4.202-9.366 9.366-9.366s9.366 4.202 9.366 9.366v16.468Z"/><path d="M19.97 7.957a1.2 1.2 0 0 0-1.2 1.2v5.523a1.2 1.2 0 0 0 2.4 0V9.157a1.2 1.2 0 0 0-1.2-1.2Z"/></g><defs><clipPath id="ka"><path fill="#fff" d="M0 0h40v40H0z"/></clipPath></defs></svg><svg fill="none" viewBox="0 0 21 21" id="phone-call" xmlns="http://www.w3.org/2000/svg"><g clip-path="url(#la)"><path d="M20.986 17.284a1.611 1.611 0 0 0-.799-1.194l-5.18-2.983a1.626 1.626 0 0 0-1.958.26l-1.02 1.02a.748.748 0 0 1-1 .056 29.49 29.49 0 0 1-2.354-2.118 29.52 29.52 0 0 1-2.117-2.354.748.748 0 0 1 .056-1l1.02-1.02a1.625 1.625 0 0 0 .259-1.957L4.91.814a1.611 1.611 0 0 0-1.194-.8 1.61 1.61 0 0 0-1.36.461L.818 2.013C-.255 3.086-.272 5.049.77 7.54c1.002 2.395 2.871 5.032 5.264 7.425 2.393 2.393 5.03 4.263 7.426 5.264 1.226.513 2.324.77 3.252.77.956 0 1.73-.273 2.275-.818l1.538-1.538c.36-.36.528-.855.461-1.36Zm-6.319-3.587 5.18 2.983c.257.147.426.4.465.693a.934.934 0 0 1-.176.683l-6.885-3.93.28-.279c.3-.3.768-.362 1.136-.15ZM3.627.688a.936.936 0 0 1 .693.465l2.983 5.18a.944.944 0 0 1-.15 1.137l-.257.257L2.946.865a.931.931 0 0 1 .681-.177Zm14.88 19.013c-.853.852-2.597.817-4.785-.098-2.316-.969-4.875-2.786-7.207-5.118-2.332-2.332-4.15-4.891-5.117-7.207C.483 5.09.447 3.347 1.299 2.494l1.142-1.142 3.957 6.873-.265.266a1.427 1.427 0 0 0-.105 1.906 30.17 30.17 0 0 0 2.166 2.41 30.202 30.202 0 0 0 2.409 2.165c.57.459 1.389.414 1.907-.104l.242-.242 6.894 3.935-1.14 1.14Z" fill="#fff"/></g><defs><clipPath id="la"><path fill="#fff" d="M0 0h21v21H0z"/></clipPath></defs></svg><svg fill="none" viewBox="0 0 21 21" id="placeholder" xmlns="http://www.w3.org/2000/svg"><path d="M10.568 4.602a2.688 2.688 0 0 0-2.684 2.685 2.688 2.688 0 0 0 2.684 2.684 2.688 2.688 0 0 0 2.685-2.684 2.688 2.688 0 0 0-2.685-2.685Zm0 4.602a1.92 1.92 0 0 1-1.917-1.917 1.92 1.92 0 0 1 1.917-1.918 1.92 1.92 0 0 1 1.918 1.918 1.92 1.92 0 0 1-1.918 1.917Z" fill="#fff"/><path d="M15.701 2.154A7.307 7.307 0 0 0 10.501 0a7.306 7.306 0 0 0-5.2 2.154c-2.571 2.57-2.89 7.407-.693 10.337L10.501 21l5.883-8.498c2.207-2.941 1.888-7.778-.683-10.348Zm.061 9.9-5.261 7.598-5.27-7.61c-1.994-2.658-1.708-7.026.612-9.346A6.544 6.544 0 0 1 10.501.767c1.76 0 3.413.685 4.658 1.93 2.32 2.32 2.606 6.687.603 9.357Z" fill="#fff"/></svg><svg fill="none" viewBox="0 0 101 100" id="play-button" xmlns="http://www.w3.org/2000/svg"><path d="M50.43 0c-27.614 0-50 22.386-50 50s22.386 50 50 50 50-22.386 50-50-22.386-50-50-50ZM67.71 52.65l-25 15.625a3.127 3.127 0 0 1-4.781-2.65v-31.25a3.124 3.124 0 0 1 4.781-2.65l25 15.625a3.128 3.128 0 0 1 0 5.3Z" fill="#D4C17F"/></svg><svg fill="none" viewBox="0 0 38 20" id="vk" xmlns="http://www.w3.org/2000/svg"><path d="M37.483 18.062a2.358 2.358 0 0 0-.127-.228c-.649-1.095-1.889-2.44-3.72-4.034l-.038-.036-.02-.018-.019-.019h-.02c-.83-.742-1.356-1.24-1.577-1.496-.403-.487-.493-.98-.273-1.479.156-.377.74-1.174 1.753-2.39.532-.646.954-1.162 1.266-1.552 2.246-2.799 3.22-4.587 2.92-5.366l-.115-.182c-.078-.11-.28-.21-.604-.301-.325-.091-.74-.106-1.246-.045l-5.608.036c-.091-.03-.221-.028-.39.009l-.253.055-.098.046-.077.055a.845.845 0 0 0-.215.191 1.235 1.235 0 0 0-.194.32 29.007 29.007 0 0 1-2.084 4.106c-.48.754-.921 1.408-1.324 1.962-.403.553-.74.961-1.013 1.223a6.927 6.927 0 0 1-.74.63c-.22.158-.389.225-.506.2a14.98 14.98 0 0 1-.331-.073 1.247 1.247 0 0 1-.438-.447 1.912 1.912 0 0 1-.224-.712 7.394 7.394 0 0 1-.068-.74c-.006-.206-.004-.498.01-.875.013-.378.02-.633.02-.767 0-.462.009-.964.028-1.506l.049-1.286c.013-.317.02-.651.02-1.004s-.024-.63-.069-.83a2.715 2.715 0 0 0-.204-.585 1.005 1.005 0 0 0-.399-.438 2.339 2.339 0 0 0-.652-.246c-.688-.146-1.565-.225-2.63-.237-2.414-.025-3.965.121-4.653.438-.273.133-.52.316-.74.547-.234.268-.267.414-.098.438.78.11 1.33.371 1.655.785l.117.219c.091.158.182.438.273.84.09.401.15.845.175 1.332.065.888.065 1.648 0 2.281a25.534 25.534 0 0 1-.185 1.478c-.059.353-.146.64-.263.858a3.566 3.566 0 0 1-.234.402.325.325 0 0 1-.097.09c-.168.062-.344.092-.526.092-.182 0-.402-.085-.662-.255a4.57 4.57 0 0 1-.808-.703c-.279-.298-.594-.715-.944-1.25a21.409 21.409 0 0 1-1.09-1.898l-.312-.53c-.195-.34-.461-.836-.799-1.487a27.813 27.813 0 0 1-.895-1.89 1.215 1.215 0 0 0-.468-.583l-.097-.055A1.363 1.363 0 0 0 7.31.997a2.175 2.175 0 0 0-.448-.119L1.527.914c-.545 0-.915.116-1.11.347l-.078.11C.3 1.43.28 1.529.28 1.663c0 .134.04.298.117.493A58.661 58.661 0 0 0 2.938 7.12c.916 1.594 1.71 2.878 2.386 3.85a45.599 45.599 0 0 0 2.064 2.757c.701.864 1.165 1.417 1.392 1.66.227.244.406.426.536.548l.487.438c.311.292.769.642 1.372 1.05.604.407 1.273.809 2.006 1.205.734.395 1.587.717 2.561.966.974.25 1.921.35 2.843.302h2.24c.454-.037.798-.17 1.032-.402l.077-.091c.052-.073.101-.186.146-.337.046-.153.068-.32.068-.502a5.65 5.65 0 0 1 .127-1.415c.097-.42.207-.736.331-.949.124-.213.263-.392.419-.538.155-.146.266-.234.331-.265.065-.03.116-.051.155-.063.312-.098.679-.003 1.101.283.422.286.818.639 1.188 1.058.37.42.814.892 1.334 1.415.52.523.974.912 1.363 1.168l.39.219c.26.146.597.28 1.012.401.415.122.778.152 1.09.092l4.985-.073c.493 0 .877-.077 1.15-.229.272-.152.434-.32.486-.502.052-.182.055-.389.01-.62a2.174 2.174 0 0 0-.137-.484Z" fill="#fff"/></svg><svg fill="none" viewBox="0 0 31 20" id="youtube" xmlns="http://www.w3.org/2000/svg"><path d="M23.893 0H6.263C2.804 0 0 2.628 0 5.87v8.26C0 17.372 2.804 20 6.263 20h17.63c3.459 0 6.263-2.628 6.263-5.87V5.87c0-3.242-2.804-5.87-6.263-5.87Zm-4.236 10.402-8.246 3.686c-.22.098-.473-.052-.473-.28V6.205c0-.231.26-.381.48-.276l8.246 3.916a.302.302 0 0 1-.007.557Z" fill="#fff"/></svg></svg>